<svg xmlns="http://www.w3.org/2000/svg" viewBox="-0.00018310546875 0 478.39007568359375 613.719970703125" width="32" height="32"><defs><linearGradient id="c323c266-c016-4adf-88b5-75bcb41052d3" x1="713.02" y1="430" x2="944.2" y2="572.47" gradientUnits="userSpaceOnUse"><stop offset="0" stop-color="#25B0F0"></stop><stop offset="1" stop-color="#147dc8"></stop></linearGradient><linearGradient id="6c24f1d1-2544-4f3b-8de4-ae15da43a1a9" x1="626.56" y1="636.37" x2="1115.79" y2="199.55" gradientUnits="userSpaceOnUse"><stop offset="0" stop-color="#25B0F0"></stop><stop offset="1" stop-color="#147dc8"></stop></linearGradient><linearGradient id="a434963d-10ba-42c9-a9de-b90c13140c4b" x1="1094.89" y1="531.69" x2="832.79" y2="433.57" gradientUnits="userSpaceOnUse"><stop offset="0" stop-color="#143d8f"></stop><stop offset="1" stop-color="#25B0F0"></stop></linearGradient><linearGradient id="d32fbf8e-0d26-476a-ab40-8c09c0340849" x1="1157.63" y1="398.41" x2="747.69" y2="884.96" gradientUnits="userSpaceOnUse"><stop offset="0" stop-color="#143d8f"></stop><stop offset="1" stop-color="#25B0F0"></stop></linearGradient></defs><path d="M871.33 501.07a135.17 135.17 0 0 1-17.21-83.52L803 441.6c-40.4 19-51.13 77.16-28.8 115.83 20 34.69 68.09 45.67 104.49 32.1a134 134 0 0 0 12-6.15l44.42-25.64a135.15 135.15 0 0 1-63.78-56.67z" transform="translate(-686.61 -196.28)" fill-rule="evenodd" fill="url(#c323c266-c016-4adf-88b5-75bcb41052d3)"></path><path d="M754.55 347.65c-64.82 37.43-87.24 121.09-49.81 185.91 35.16 60.9 111.12 84.38 173.94 56a81.17 81.17 0 0 1-69-146.34L949 362.78c48.64-28.09 67.73-74.51 67.73-116.6v-49.9z" transform="translate(-686.61 -196.28)" fill-rule="evenodd" fill="url(#6c24f1d1-2544-4f3b-8de4-ae15da43a1a9)"></path><path d="M972.94 416.75a134.34 134.34 0 0 0-12 6.15l-44.41 25.64a135.39 135.39 0 0 1 81 140.2l51.13-24.06c40.4-19 51.12-77.15 28.8-115.82-20.07-34.7-68.12-45.67-104.52-32.11z" transform="translate(-686.61 -196.28)" fill-rule="evenodd" fill="url(#a434963d-10ba-42c9-a9de-b90c13140c4b)"></path><path d="M972.94 416.75a81.17 81.17 0 0 1 69 146.35l-139.31 80.41C854 671.6 834.89 718 834.89 760.1V810l262.16-151.36c64.83-37.43 87.25-121.09 49.82-185.92-35.16-60.9-111.12-84.37-173.93-55.97z" transform="translate(-686.61 -196.28)" fill-rule="evenodd" fill="url(#d32fbf8e-0d26-476a-ab40-8c09c0340849)"></path></svg>
