<svg xmlns="http://www.w3.org/2000/svg" xmlns:xlink="http://www.w3.org/1999/xlink" fill="none" version="1.1" width="1440.0000038141163" height="1024.0000053636013" viewBox="0 0 1440.0000038141163 1024.0000053636013"><defs><clipPath id="master_svg0_2_002"><rect x="0.0000038141163258842425" y="0" width="1440" height="1024" rx="16"/></clipPath></defs><g transform="matrix(1,3.7247229744963306e-9,-3.7247229744963306e-9,1,0,-1.4206526706422572e-14)" clip-path="url(#master_svg0_2_002)"><rect x="0.0000038141163258842425" y="0" width="1440" height="1024" rx="16" fill="#000000" fill-opacity="1"/><g><rect x="392.0000038141163" y="200" width="962" height="745" rx="16" fill="#39393A" fill-opacity="1"/></g><g><rect x="86.00000381411633" y="78.99996948242188" width="261" height="67" rx="16" fill="#39393A" fill-opacity="1"/></g><g><rect x="1183.0000038141163" y="78.99996948242188" width="71" height="67" rx="16" fill="#39393A" fill-opacity="1"/></g><g><rect x="1283.0000038141163" y="78.99996948242188" width="71" height="67" rx="16" fill="#39393A" fill-opacity="1"/></g><g><rect x="86.00000381411633" y="200" width="261" height="67" rx="16" fill="#39393A" fill-opacity="1"/></g><g><rect x="86.00000381411633" y="301" width="261" height="69" rx="16" fill="#39393A" fill-opacity="1"/></g><g><rect x="86.00000381411633" y="404" width="261" height="67" rx="16" fill="#39393A" fill-opacity="1"/></g><g><rect x="86.00000381411633" y="878" width="261" height="67" rx="16" fill="#39393A" fill-opacity="1"/></g><g><rect x="392.0000038141163" y="78.99996948242188" width="762" height="67" rx="16" fill="#39393A" fill-opacity="1"/></g><g><rect x="0.0000038141163258842425" y="0" width="720" height="1024" rx="0" fill="#FFFFFF" fill-opacity="1"/></g><g transform="matrix(1,3.7247229744963306e-9,-3.7247229744963306e-9,1,2.9425311254271946e-7,-3.2032619401434204e-7)"><rect x="86.00000381411633" y="79" width="261" height="67" rx="16" fill="#EBEDF0" fill-opacity="1"/></g><g transform="matrix(1,3.7247229744963306e-9,-3.7247229744963306e-9,1,7.449446002283366e-7,-3.2032619401434204e-7)"><rect x="86.00000381411633" y="200" width="261" height="67" rx="16" fill="#EBEDF0" fill-opacity="1"/></g><g transform="matrix(1,3.7247229744963306e-9,-3.7247229744963306e-9,1,0.0000011211416222067783,-3.2032619401434204e-7)"><rect x="86.00000381411633" y="301" width="261" height="69" rx="16" fill="#EBEDF0" fill-opacity="1"/></g><g transform="matrix(1,3.7247229744963306e-9,-3.7247229744963306e-9,1,0.0000015047880879137665,-3.2032619401434204e-7)"><rect x="86.00000381411633" y="404" width="261" height="67" rx="16" fill="#EBEDF0" fill-opacity="1"/></g><g transform="matrix(1,3.7247229744963306e-9,-3.7247229744963306e-9,1,0.000003270306777380938,-3.2032619401434204e-7)"><rect x="86.00000381411633" y="878" width="261" height="67" rx="16" fill="#EBEDF0" fill-opacity="1"/></g><g transform="matrix(1,3.7247229744963306e-9,-3.7247229744963306e-9,1,7.449446002283366e-7,-0.0000014563667036782135)"><path d="M391.0000038141163 216C391.0000038141163 207.1634440027073 398.16344781682363 200 407.0000038141163 200L719.0000038141163 200C719.0000038141163 200 719.0000038141163 200 719.0000038141163 200L719.0000038141163 945C719.0000038141163 945 719.0000038141163 945 719.0000038141163 945L407.0000038141163 945C398.16344781682363 945 391.0000038141163 937.8365559972927 391.0000038141163 929Z" fill="#EBEDF0" fill-opacity="1"/></g><g transform="matrix(1,3.7247229744963306e-9,-3.7247229744963306e-9,1,2.942531409644289e-7,-0.0000014563667036782135)"><path d="M391.0000038141163 95C391.0000038141163 86.16344400270731 398.16344781682363 79 407.0000038141163 79L720.0000038141163 79C720.0000038141163 79 720.0000038141163 79 720.0000038141163 79L720.0000038141163 146C720.0000038141163 146 720.0000038141163 146 720.0000038141163 146L407.0000038141163 146C398.16344781682363 146 391.0000038141163 138.8365559972927 391.0000038141163 130Z" fill="#EBEDF0" fill-opacity="1"/></g></g></svg>